<svg id="Слой_1" data-name="Слой 1" xmlns="http://www.w3.org/2000/svg" viewBox="0 0 285 305"><defs><style>.cls-1{fill:#292929;}</style></defs><path class="cls-1" d="M265.84,104.67c-1.69,2.84-5.31,8.24-10,11.35-6.61,4.38-16.7,5.61-16.7,5.61s-.35,5.81-10.28,7.56A86.66,86.66,0,0,1,213,130.4a75.39,75.39,0,0,0-17.43-27.81A73.63,73.63,0,0,0,143,80.53c-32.23,0-59.68,20.76-70,49.8a87,87,0,0,1-18.23-1.14c-9.95-1.75-10.29-7.56-10.29-7.56s-8.7-1.23-15.29-5.61c-4.82-3.19-8.5-8.75-10.13-11.54L142,41.07Z"/><path class="cls-1" d="M266.88,88.59A26.71,26.71,0,0,0,266.4,101L142,37.08,18.65,100.69a26.72,26.72,0,0,0-.53-12.1,28,28,0,0,0-6.79-11.31l131.49-67,130.85,67A28,28,0,0,0,266.88,88.59Z"/><path class="cls-1" d="M71.93,137.54V242.19L45.45,222.4V147.62c0-5.57,5.34-10.08,11.92-10.08Z"/><path class="cls-1" d="M241,147.55V221L214.52,240.8V137.4h14.56C235.66,137.4,241,141.94,241,147.55Z"/><path class="cls-1" d="M204.23,152.28v95l-61.64,47.5-59.82-46.1V152.28c0-33.46,26.29-60.57,58.72-60.57h4C177.93,91.71,204.23,118.82,204.23,152.28Z"/></svg>