<svg id="Слой_1" data-name="Слой 1" xmlns="http://www.w3.org/2000/svg" viewBox="0 0 1080 299"><defs><style>.cls-1{fill:#292929;}</style></defs><path class="cls-1" d="M341.15,139.71v31.9H334V126.49h5.85l25.54,32.6V126.55h7.12v45.06h-6.16Z"/><path class="cls-1" d="M413.66,165.31v6.3h-31V126.49h30.38v6.29h-23.2v12.9H410v5.85H389.89v13.78Z"/><path class="cls-1" d="M437,126.68h6.67l5.6,15.38,5.59-15.38h6.74l-7.76,20,6.74,16.64,14.11-36.85h7.75l-18.43,45.12h-6.23l-8.45-20.21-8.52,20.21h-6.22L416.2,126.49H424l14.11,36.85,6.73-16.64Z"/><path class="cls-1" d="M538.34,126.49v45.12h-7.12V151.72H508.47v19.89h-7.18V126.49h7.18v18.87h22.75V126.49Z"/><path class="cls-1" d="M579.45,165.31v6.3h-31V126.49h30.38v6.29h-23.2v12.9h20.15v5.85H555.68v13.78Z"/><path class="cls-1" d="M586.82,171.61V126.49h19.64a12.31,12.31,0,0,1,5.59,1.27,14.76,14.76,0,0,1,4.42,3.37,15.8,15.8,0,0,1,2.92,4.73,14.27,14.27,0,0,1,1.05,5.31,15.35,15.35,0,0,1-1.08,5.75,13.42,13.42,0,0,1-3.09,4.67,12,12,0,0,1-4.66,2.86l10.61,17.16h-8l-9.79-15.7H594v15.7Zm7.18-22h12.39a5.54,5.54,0,0,0,3.5-1.18,8.07,8.07,0,0,0,2.41-3.08,9.69,9.69,0,0,0,.89-4.19,8.85,8.85,0,0,0-3.68-7.28,6,6,0,0,0-3.5-1.11H594Z"/><path class="cls-1" d="M628.83,171.61V126.49H636v45.12Z"/><path class="cls-1" d="M679.22,132.78h-15v38.83H657V132.78H642v-6.29h37.24Z"/><path class="cls-1" d="M694,126.49h6.74l17.54,45.12h-7.5l-4.41-12.27h-18l-4.43,12.27h-7.5Zm10.48,27.58-7.11-19.77-7.14,19.77Z"/><path class="cls-1" d="M740.6,171.92a19.1,19.1,0,0,1-8.32-1.84,21.37,21.37,0,0,1-6.77-5.05,23.81,23.81,0,0,1-4.51-7.37,24.07,24.07,0,0,1-1.62-8.8,23.28,23.28,0,0,1,6.13-15.92,21.3,21.3,0,0,1,6.8-5,19.89,19.89,0,0,1,8.48-1.81,20.54,20.54,0,0,1,10.9,2.7,17.35,17.35,0,0,1,6.64,7.15L752.87,140a12.69,12.69,0,0,0-5.09-5.53,14.11,14.11,0,0,0-7.11-1.84,12.47,12.47,0,0,0-5.82,1.33,13.49,13.49,0,0,0-4.41,3.66,16.83,16.83,0,0,0-2.83,5.27,19.4,19.4,0,0,0-1,6.2,18.63,18.63,0,0,0,1.08,6.41,16.39,16.39,0,0,0,3,5.25,14.22,14.22,0,0,0,4.64,3.52,13.12,13.12,0,0,0,5.72,1.28,14.28,14.28,0,0,0,7.09-1.88,21.38,21.38,0,0,0,6.26-5.62v7.24Q748.55,171.93,740.6,171.92Zm13.09-17.85h-9.4v-5.34h15.44v22.88h-6Z"/><path class="cls-1" d="M798.81,165.31v6.3H767.87V126.49h30.37v6.29H775v12.9h20.15v5.85H775v13.78Z"/><path class="cls-1" d="M821.88,171.61V126.49h18.93a12.32,12.32,0,0,1,5.6,1.27,15.27,15.27,0,0,1,4.45,3.37,15,15,0,0,1,2.92,4.73,14.63,14.63,0,0,1,1,5.31,15.77,15.77,0,0,1-1.69,7.12,14.52,14.52,0,0,1-4.73,5.49,12.24,12.24,0,0,1-7.18,2.13H829.06v15.7Zm7.18-22h11.69a5.79,5.79,0,0,0,3.5-1.11,7.63,7.63,0,0,0,2.41-3,10.39,10.39,0,0,0,.89-4.36,9,9,0,0,0-1-4.35,7.77,7.77,0,0,0-2.63-2.92,6.27,6.27,0,0,0-3.47-1.05H829.06Z"/><path class="cls-1" d="M880.15,171.92a19.68,19.68,0,0,1-8.7-1.9,21.59,21.59,0,0,1-6.84-5.18,23.78,23.78,0,0,1-4.44-7.37,23.48,23.48,0,0,1-1.56-8.42,22.82,22.82,0,0,1,1.65-8.61,23.77,23.77,0,0,1,4.61-7.31,22.48,22.48,0,0,1,6.86-5.08,19.68,19.68,0,0,1,8.61-1.88,19.31,19.31,0,0,1,8.8,2,21.88,21.88,0,0,1,6.77,5.27,24,24,0,0,1,4.38,7.38,23.75,23.75,0,0,1-.06,16.93,23,23,0,0,1-4.54,7.31,22,22,0,0,1-6.87,5.05A20,20,0,0,1,880.15,171.92Zm-14.23-22.87a19.33,19.33,0,0,0,1,6.19,16.85,16.85,0,0,0,2.86,5.28,13.74,13.74,0,0,0,4.51,3.65,14.07,14.07,0,0,0,12.11-.06,13.6,13.6,0,0,0,4.51-3.78,17.54,17.54,0,0,0,2.8-5.31,19.31,19.31,0,0,0,.95-6,18.62,18.62,0,0,0-1-6.17,17.14,17.14,0,0,0-2.92-5.24,14,14,0,0,0-4.54-3.65,13.87,13.87,0,0,0-12,.06,13.81,13.81,0,0,0-4.47,3.75,17.22,17.22,0,0,0-2.8,5.27A19,19,0,0,0,865.92,149.05Z"/><path class="cls-1" d="M909.26,171.61V126.49h7.17v38.82h24.15v6.3Z"/><path class="cls-1" d="M959.39,126.49h6.74l17.54,45.12h-7.5l-4.41-12.27h-18l-4.43,12.27h-7.5Zm10.47,27.58-7.1-19.77-7.14,19.77Z"/><path class="cls-1" d="M996.44,139.71v31.9h-7.18V126.49h5.84l25.55,32.6V126.55h7.12v45.06h-6.17Z"/><path class="cls-1" d="M1038,171.61V126.49h16a22.71,22.71,0,0,1,12.17,3,19.28,19.28,0,0,1,7.34,8.13A25.69,25.69,0,0,1,1076,149a25.12,25.12,0,0,1-2.7,12,19.13,19.13,0,0,1-7.66,7.88,23.31,23.31,0,0,1-11.63,2.8ZM1068.75,149a19.13,19.13,0,0,0-1.74-8.38,13.69,13.69,0,0,0-5-5.72,14.46,14.46,0,0,0-8-2.1h-8.83v32.53H1054a14.19,14.19,0,0,0,8-2.16,13.81,13.81,0,0,0,5-5.84A19.56,19.56,0,0,0,1068.75,149Z"/><path class="cls-1" d="M258.5,102.09c-1.69,2.84-5.3,8.24-10,11.35-6.6,4.38-16.7,5.61-16.7,5.61s-.34,5.81-10.28,7.56a86.55,86.55,0,0,1-15.86,1.21A75.24,75.24,0,0,0,188.23,100,73.67,73.67,0,0,0,135.64,78c-32.22,0-59.67,20.76-70,49.8a86.4,86.4,0,0,1-18.24-1.14c-10-1.75-10.28-7.56-10.28-7.56s-8.7-1.23-15.29-5.61c-4.83-3.18-8.5-8.75-10.13-11.54L134.66,38.49Z"/><path class="cls-1" d="M259.55,86a26.71,26.71,0,0,0-.48,12.37L134.66,34.5,11.32,98.11A26.75,26.75,0,0,0,10.78,86,27.91,27.91,0,0,0,4,74.7l131.48-67,130.85,67A28,28,0,0,0,259.55,86Z"/><path class="cls-1" d="M64.6,135V239.61L38.12,219.82V145C38.12,139.47,43.46,135,50,135Z"/><path class="cls-1" d="M233.66,145v73.46l-26.48,19.79V134.82h14.57C228.33,134.82,233.66,139.36,233.66,145Z"/><path class="cls-1" d="M196.89,149.7v95l-61.63,47.5L75.44,246.08V149.7c0-33.46,26.29-60.57,58.71-60.57h4C170.6,89.13,196.89,116.24,196.89,149.7Z"/></svg>